# xmcd CD database file
#
# Track frame offsets:
#	150
#	20070
#	34707
#	48932
#	62695
#	77475
#	95220
#	113177
#	128522
#
# Disc length: 1895 seconds
#
# Revision: 0
# Processed by: cddbd v1.5.2PL0 Copyright (c) Steve Scherf et al.
# Submitted via: CDex 1.51
#
DISCID=6e076509
DTITLE=Rusty McHugh and Mike Fincher - Down at the Flora-Bama
DYEAR=1999
DGENRE=Country
TTITLE0=Who's Ya Poondaddy
TTITLE1=I Love Wal-Mart
TTITLE2=My Truck
TTITLE3=Down at the Flora-Bama
TTITLE4=I Ain't Been Cheatin'
TTITLE5=She put a Louisiana Liplock on my Alabama Porkchop
TTITLE6=Po Ass Peolpe
TTITLE7=Drive Me To Drinkin'
TTITLE8=On The Gulf Of Mexico
EXTD=YEAR: 1999
EXTT0=
EXTT1=
EXTT2=
EXTT3=
EXTT4=
EXTT5=
EXTT6=
EXTT7=
EXTT8=
PLAYORDER=
